#!OML:ASF H:\Terrain\Patient Classification 1\Animal2\Wednesday\Animal2.ASF
:FULLY-SPECIFIED
:DEGREES
2671
root 7.44595 14.2796 -20.8088 25.7982 -24.5108 3.88987
lowerback 30.8077 -0.645542 -3.76604
upperback 13.0917 -1.78417 6.95178
thorax -1.55219 -1.43961 9.90057
lowerneck 4.9227 5.80519 18.5952
upperneck -13.1428 6.34151 -30.9174
head -2.64395 4.06236 -13.8669
rclavicle 7.91163e-014 -5.1684e-015
rhumerus 67.6224 1.80631 0.730189
rradius 87.9883
rwrist -36.101
rhand -17.2649 16.1017
rfingers 7.12502
rthumb 8.97969 -13.6872
lclavicle 7.91163e-014 -5.1684e-015
lhumerus -337.544 -43.162 388.355
lradius 28.3919
lwrist -14.3472
lhand 1.66836 22.5598
lfingers 7.12502
lthumb 27.1874 50.621
rfemur -83.9791 -2.32567 -1.60563
rtibia 76.7586
rfoot -26.6777 4.84822
rtoes -26.9625
lfemur -35.735 14.3119 9.3817
ltibia 43.4834
lfoot -24.2421 7.97339
ltoes -44.2864
2672
root 7.47154 14.2606 -20.8205 25.6627 -24.3247 3.63794
lowerback 31.2286 -0.421565 -4.1524
upperback 13.0779 -1.60045 7.22084
thorax -1.7586 -1.37076 10.3669
lowerneck 5.01742 5.82181 18.9882
upperneck -13.2258 6.38661 -31.1686
head -2.63887 4.0896 -14.0616
rclavicle 6.0033e-014 -7.31528e-014
rhumerus 66.8457 2.25615 1.72352
rradius 90.5283
rwrist -36.3833
rhand -17.0934 16.5273
rfingers 7.12502
rthumb 9.14522 -13.2544
lclavicle 6.0033e-014 -7.31528e-014
lhumerus -337.391 -39.003 390.369
lradius 26.3931
lwrist -17.6663
lhand -2.86516 22.5693
lfingers 7.12502
lthumb 22.8434 51.2365
rfemur -83.8096 -2.13181 -1.58619
rtibia 76.8964
rfoot -26.7351 4.48742
rtoes -27.5872
lfemur -35.9642 14.4141 9.68928
ltibia 44.2051
lfoot -24.5457 7.63622
ltoes -44.048
2673
root 7.50285 14.2377 -20.8344 25.7453 -24.0421 3.19715
lowerback 31.4516 -0.250206 -4.29831
upperback 13.1098 -1.41768 7.50597
thorax -1.84676 -1.29901 10.7125
lowerneck 4.96248 5.86495 19.13
upperneck -13.3716 6.4339 -31.1654
head -2.64797 4.10754 -14.0917
rclavicle -7.15625e-014 8.42847e-014
rhumerus 65.8339 2.65642 2.56071
rradius 93.117
rwrist -36.4336
rhand -16.7529 16.7617
rfingers 7.12502
rthumb 9.47376 -13.0053
lclavicle -7.15625e-014 8.42847e-014
lhumerus -337.176 -33.9682 392.52
lradius 24.8002
lwrist -20.8101
lhand -6.22422 21.7861
lfingers 7.12502
lthumb 19.6168 50.8164
rfemur -83.7431 -1.99561 -1.37229
rtibia 76.9771
rfoot -26.8199 4.34147
rtoes -27.5385
lfemur -36.3947 14.5238 10.2162
ltibia 44.9791
lfoot -24.8674 7.15449
ltoes -43.7062
2674
root 7.5535 14.204 -20.8487 26.0293 -23.9516 2.82724
lowerback 31.4729 -0.0731274 -4.46174
upperback 13.0718 -1.22984 7.71161
thorax -1.93476 -1.21689 10.9768
lowerneck 4.8776 5.81236 19.1356
upperneck -13.4137 6.35223 -31.003
head -2.6757 4.05119 -14.0269
rclavicle -1.43125e-014 1.43125e-014
rhumerus 64.7704 3.00924 3.53863
rradius 95.5622
rwrist -36.4321
rhand -16.2337 16.9947
rfingers 7.12502
rthumb 9.97474 -12.749
lclavicle -1.43125e-014 1.43125e-014
lhumerus -336.813 -28.9467 394.394
lradius 23.857
lwrist -22.7034
lhand -9.02633 21.0494
lfingers 7.12502
lthumb 16.9211 50.3322
rfemur -84.0534 -2.05952 -1.2276
rtibia 77.0139
rfoot -26.8467 4.4495
rtoes -28.5267
lfemur -37.131 14.6252 10.5511
ltibia 45.8671
lfoot -24.9487 7.16924
ltoes -44.0124
2675
root 7.59651 14.1748 -20.8617 26.1048 -23.8406 2.74253
lowerback 31.593 0.132054 -4.87718
upperback 13.0563 -1.07858 7.8803
thorax -2.02616 -1.1608 11.3544
lowerneck 4.67142 5.71818 19.3509
upperneck -13.3305 6.21774 -31.0386
head -2.6397 3.95584 -14.0786
rclavicle 5.1684e-015 1.35174e-014
rhumerus 63.9113 3.32714 4.55071
rradius 97.6536
rwrist -36.5027
rhand -15.4075 17.4292
rfingers 7.12502
rthumb 10.7717 -12.2746
lclavicle 5.1684e-015 1.35174e-014
lhumerus -336.132 -23.4718 396.746
lradius 22.7819
lwrist -24.0873
lhand -11.8799 20.442
lfingers 7.12502
lthumb 14.1727 49.9386
rfemur -84.263 -2.19856 -1.31382
rtibia 77.1119
rfoot -26.8445 4.29957
rtoes -30.1438
lfemur -37.8392 14.5614 10.6185
ltibia 46.7588
lfoot -24.9514 7.6413
ltoes -45.1202
2676
root 7.64096 14.1462 -20.8753 26.2139 -23.6719 2.61477
lowerback 31.61 0.304558 -5.10892
upperback 13.1186 -0.926772 7.93529
thorax -1.99613 -1.10099 11.4989
lowerneck 4.47424 5.67299 19.791
upperneck -13.4207 6.14888 -31.1028
head -2.62245 3.89144 -14.1961
rclavicle 1.35174e-014 -2.14687e-014
rhumerus 61.7786 3.84021 5.22723
rradius 100.78
rwrist -36.6175
rhand -14.7691 17.7749
rfingers 7.12502
rthumb 11.3874 -11.8958
lclavicle 1.35174e-014 -2.14687e-014
lhumerus -335.034 -17.3451 399.681
lradius 21.5899
lwrist -25.7902
lhand -15.4097 20.5302
lfingers 7.12502
lthumb 10.7696 50.2341
rfemur -84.4487 -2.31529 -1.3826
rtibia 77.2104
rfoot -26.8572 3.83222
rtoes -31.0078
lfemur -38.5537 14.4897 10.7519
ltibia 47.6475
lfoot -25.2377 7.90266
ltoes -45.6172
2677
root 7.68141 14.1217 -20.8855 26.2829 -23.4933 2.33167
lowerback 31.6892 0.478174 -5.177
upperback 13.2165 -0.736406 7.95718
thorax -1.96244 -1.01794 11.5021
lowerneck 4.26998 5.62677 20.2418
upperneck -13.4711 6.09172 -31.0929
head -2.59436 3.82689 -14.2811
rclavicle -1.43125e-014 8.94531e-015
rhumerus 61.2949 4.18337 5.86717
rradius 102.096
rwrist -37.1497
rhand -14.6014 17.973
rfingers 7.12502
rthumb 11.5492 -11.6888
lclavicle -1.43125e-014 8.94531e-015
lhumerus -333.621 -11.241 402.809
lradius 20.7986
lwrist -27.6284
lhand -18.8341 21.2171
lfingers 7.12502
lthumb 7.46533 51.0654
rfemur -84.4828 -2.25753 -1.34888
rtibia 77.2924
rfoot -26.8744 3.62177
rtoes -30.6715
lfemur -39.0635 14.4705 11.0601
ltibia 48.4494
lfoot -25.8706 7.17234
ltoes -44.0026
2678
root 7.71917 14.1033 -20.8944 26.2779 -23.3144 2.17455
lowerback 31.8698 0.671068 -5.38131
upperback 13.2655 -0.557755 7.98556
thorax -2.01693 -0.939717 11.5942
lowerneck 4.13415 5.54659 20.63
upperneck -13.5043 5.98718 -31.0976
head -2.59074 3.74594 -14.366
rclavicle 3.57812e-015 4.65156e-014
rhumerus 59.307 4.91881 6.40632
rradius 104.753
rwrist -37.1523
rhand -14.2862 18.0009
rfingers 7.12502
rthumb 11.8531 -11.6436
lclavicle 3.57812e-015 4.65156e-014
lhumerus -331.961 -5.93432 405.9
lradius 20.4818
lwrist -27.9467
lhand -21.1428 20.9945
lfingers 7.12502
lthumb 5.23649 50.9098
rfemur -84.4495 -2.20473 -1.4609
rtibia 77.3519
rfoot -26.7987 3.64233
rtoes -29.5712
lfemur -39.5388 14.4359 11.2155
ltibia 49.197
lfoot -26.5252 6.59731
ltoes -42.6516
2679
root 7.75799 14.0817 -20.9086 26.3322 -23.0866 1.97275
lowerback 31.9769 0.867236 -5.5378
upperback 13.3727 -0.364524 8.0003
thorax -1.98421 -0.858508 11.6374
lowerneck 4.01247 5.45461 20.955
upperneck -13.6385 5.85235 -30.9924
head -2.63582 3.65032 -14.3994
rclavicle 2.70347e-014 -3.55825e-014
rhumerus 58.2931 5.91621 6.6996
rradius 106.246
rwrist -36.7528
rhand -13.8189 17.8871
rfingers 7.12502
rthumb 12.3037 -11.7309
lclavicle 2.70347e-014 -3.55825e-014
lhumerus -330.09 -2.84608 407.837
lradius 20.7512
lwrist -24.7316
lhand -23.4031 20.7288
lfingers 7.12502
lthumb 3.05381 50.6867
rfemur -84.4468 -2.09619 -1.58512
rtibia 77.3706
rfoot -26.7601 3.33432
rtoes -29.5738
lfemur -40.0876 14.3798 11.4401
ltibia 49.9239
lfoot -26.4631 7.90636
ltoes -45.5744
2680
root 7.79942 14.0557 -20.9285 26.3954 -22.8282 1.76373
lowerback 32.1565 1.06318 -5.71974
upperback 13.4443 -0.175424 8.07287
thorax -2.01917 -0.778273 11.7613
lowerneck 3.76106 5.36921 21.1536
upperneck -13.5852 5.7306 -30.8167
head -2.6116 3.54991 -14.357
rclavicle 4.65156e-014 -4.17448e-015
rhumerus 56.6454 6.63763 7.17754
rradius 108.393
rwrist -36.8952
rhand -13.7658 17.9068
rfingers 7.12502
rthumb 12.355 -11.7081
lclavicle 4.65156e-014 -4.17448e-015
lhumerus -328.203 -0.122732 410.326
lradius 21.1189
lwrist -21.4278
lhand -26.6559 22.3247
lfingers 7.12502
lthumb -0.087744 52.3044
rfemur -84.4768 -2.07019 -1.64122
rtibia 77.3798
rfoot -26.7993 2.98664
rtoes -30.4729
lfemur -40.6957 14.2171 11.7296
ltibia 50.652
lfoot -26.2967 8.85325
ltoes -47.5032
